<svg width="1169" height="307" viewBox="0 0 1169 307" fill="none" xmlns="http://www.w3.org/2000/svg">
<path d="M66.25 244C51.0833 244 39.25 240 30.75 232C22.25 223.833 18 212.333 18 197.5V56.5H57V195.25C57 200.917 58.4167 205.333 61.25 208.5C64.25 211.5 68.4167 213 73.75 213C75.75 213 77.75 212.75 79.75 212.25C81.9167 211.75 83.5833 211.167 84.75 210.5L86.5 240.75C80 242.917 73.25 244 66.25 244ZM241.146 107.5V242H204.146V226C198.98 231.833 192.813 236.333 185.646 239.5C178.48 242.5 170.73 244 162.396 244C144.73 244 130.73 238.917 120.396 228.75C110.063 218.583 104.896 203.5 104.896 183.5V107.5H143.896V177.75C143.896 199.417 152.98 210.25 171.146 210.25C180.48 210.25 187.98 207.25 193.646 201.25C199.313 195.083 202.146 186 202.146 174V107.5H241.146ZM356.777 105.5C369.277 105.5 380.611 108.417 390.777 114.25C401.111 119.917 409.194 128 415.027 138.5C420.861 148.833 423.777 160.917 423.777 174.75C423.777 188.583 420.861 200.75 415.027 211.25C409.194 221.583 401.111 229.667 390.777 235.5C380.611 241.167 369.277 244 356.777 244C338.277 244 324.194 238.167 314.527 226.5V242H277.277V56.5H316.277V121.75C326.111 110.917 339.611 105.5 356.777 105.5ZM350.027 212C360.027 212 368.194 208.667 374.527 202C381.027 195.167 384.277 186.083 384.277 174.75C384.277 163.417 381.027 154.417 374.527 147.75C368.194 140.917 360.027 137.5 350.027 137.5C340.027 137.5 331.777 140.917 325.277 147.75C318.944 154.417 315.777 163.417 315.777 174.75C315.777 186.083 318.944 195.167 325.277 202C331.777 208.667 340.027 212 350.027 212Z" fill="#909095"/>
<path d="M829.25 105.5C846.083 105.5 859.417 110.5 869.25 120.5C879.25 130.333 884.25 145.167 884.25 165V242H845.25V171C845.25 160.333 843 152.417 838.5 147.25C834.167 141.917 827.917 139.25 819.75 139.25C810.583 139.25 803.333 142.25 798 148.25C792.667 154.083 790 162.833 790 174.5V242H751V171C751 149.833 742.5 139.25 725.5 139.25C716.5 139.25 709.333 142.25 704 148.25C698.667 154.083 696 162.833 696 174.5V242H657V107.5H694.25V123C699.25 117.333 705.333 113 712.5 110C719.833 107 727.833 105.5 736.5 105.5C746 105.5 754.583 107.417 762.25 111.25C769.917 114.917 776.083 120.333 780.75 127.5C786.25 120.5 793.167 115.083 801.5 111.25C810 107.417 819.25 105.5 829.25 105.5ZM988.422 212.75C995.422 212.75 1001.59 211.75 1006.92 209.75C1012.42 207.583 1017.51 204.25 1022.17 199.75L1042.92 222.25C1030.26 236.75 1011.76 244 987.422 244C972.255 244 958.839 241.083 947.172 235.25C935.505 229.25 926.505 221 920.172 210.5C913.839 200 910.672 188.083 910.672 174.75C910.672 161.583 913.755 149.75 919.922 139.25C926.255 128.583 934.839 120.333 945.672 114.5C956.672 108.5 969.005 105.5 982.672 105.5C995.505 105.5 1007.17 108.25 1017.67 113.75C1028.17 119.083 1036.51 126.917 1042.67 137.25C1049.01 147.417 1052.17 159.5 1052.17 173.5L952.672 192.75C955.505 199.417 959.922 204.417 965.922 207.75C972.089 211.083 979.589 212.75 988.422 212.75ZM982.672 135C972.839 135 964.839 138.167 958.672 144.5C952.505 150.833 949.255 159.583 948.922 170.75L1014.42 158C1012.59 151 1008.84 145.417 1003.17 141.25C997.505 137.083 990.672 135 982.672 135ZM1115.64 125.25C1120.3 118.75 1126.55 113.833 1134.39 110.5C1142.39 107.167 1151.55 105.5 1161.89 105.5V141.5C1157.55 141.167 1154.64 141 1153.14 141C1141.97 141 1133.22 144.167 1126.89 150.5C1120.55 156.667 1117.39 166 1117.39 178.5V242H1078.39V107.5H1115.64V125.25Z" fill="#909095"/>
<path d="M567.957 171.709L515.534 235.981C512.685 239.473 508.417 241.5 503.91 241.5H452.43C439.814 241.5 432.834 226.873 440.769 217.065L519.375 119.908C525.474 112.37 537.014 112.511 542.926 120.197L568.223 153.082C572.467 158.6 572.357 166.314 567.957 171.709Z" fill="#F4D38B"/>
<path d="M626.464 224.37L601.19 192.777C597.245 187.846 589.775 187.76 585.718 192.599L559.229 224.192C553.772 230.699 558.399 240.617 566.892 240.617H618.655C627.04 240.617 631.702 230.917 626.464 224.37Z" fill="#F4D38B"/>
<path d="M365.035 301.418L373.9 283.418C377.172 276.773 372.336 269 364.928 269H24C18.4772 269 14 273.477 14 279V297C14 302.523 18.4772 307 24 307H356.064C359.873 307 363.352 304.836 365.035 301.418Z" fill="#F4D38B"/>
</svg>
