<svg width="1169" height="318" viewBox="0 0 1169 318" fill="none" xmlns="http://www.w3.org/2000/svg">
<path d="M66.25 244C51.0833 244 39.25 240 30.75 232C22.25 223.833 18 212.333 18 197.5V56.5H57V195.25C57 200.917 58.4167 205.333 61.25 208.5C64.25 211.5 68.4167 213 73.75 213C75.75 213 77.75 212.75 79.75 212.25C81.9167 211.75 83.5833 211.167 84.75 210.5L86.5 240.75C80 242.917 73.25 244 66.25 244ZM241.146 107.5V242H204.146V226C198.98 231.833 192.813 236.333 185.646 239.5C178.48 242.5 170.73 244 162.396 244C144.73 244 130.73 238.917 120.396 228.75C110.063 218.583 104.896 203.5 104.896 183.5V107.5H143.896V177.75C143.896 199.417 152.98 210.25 171.146 210.25C180.48 210.25 187.98 207.25 193.646 201.25C199.313 195.083 202.146 186 202.146 174V107.5H241.146ZM356.777 105.5C369.277 105.5 380.611 108.417 390.777 114.25C401.111 119.917 409.194 128 415.027 138.5C420.861 148.833 423.777 160.917 423.777 174.75C423.777 188.583 420.861 200.75 415.027 211.25C409.194 221.583 401.111 229.667 390.777 235.5C380.611 241.167 369.277 244 356.777 244C338.277 244 324.194 238.167 314.527 226.5V242H277.277V56.5H316.277V121.75C326.111 110.917 339.611 105.5 356.777 105.5ZM350.027 212C360.027 212 368.194 208.667 374.527 202C381.027 195.167 384.277 186.083 384.277 174.75C384.277 163.417 381.027 154.417 374.527 147.75C368.194 140.917 360.027 137.5 350.027 137.5C340.027 137.5 331.777 140.917 325.277 147.75C318.944 154.417 315.777 163.417 315.777 174.75C315.777 186.083 318.944 195.167 325.277 202C331.777 208.667 340.027 212 350.027 212Z" fill="white"/>
<path d="M829.25 105.5C846.083 105.5 859.417 110.5 869.25 120.5C879.25 130.333 884.25 145.167 884.25 165V242H845.25V171C845.25 160.333 843 152.417 838.5 147.25C834.167 141.917 827.917 139.25 819.75 139.25C810.583 139.25 803.333 142.25 798 148.25C792.667 154.083 790 162.833 790 174.5V242H751V171C751 149.833 742.5 139.25 725.5 139.25C716.5 139.25 709.333 142.25 704 148.25C698.667 154.083 696 162.833 696 174.5V242H657V107.5H694.25V123C699.25 117.333 705.333 113 712.5 110C719.833 107 727.833 105.5 736.5 105.5C746 105.5 754.583 107.417 762.25 111.25C769.917 114.917 776.083 120.333 780.75 127.5C786.25 120.5 793.167 115.083 801.5 111.25C810 107.417 819.25 105.5 829.25 105.5ZM988.422 212.75C995.422 212.75 1001.59 211.75 1006.92 209.75C1012.42 207.583 1017.51 204.25 1022.17 199.75L1042.92 222.25C1030.26 236.75 1011.76 244 987.422 244C972.255 244 958.839 241.083 947.172 235.25C935.505 229.25 926.505 221 920.172 210.5C913.839 200 910.672 188.083 910.672 174.75C910.672 161.583 913.755 149.75 919.922 139.25C926.255 128.583 934.839 120.333 945.672 114.5C956.672 108.5 969.005 105.5 982.672 105.5C995.505 105.5 1007.17 108.25 1017.67 113.75C1028.17 119.083 1036.51 126.917 1042.67 137.25C1049.01 147.417 1052.17 159.5 1052.17 173.5L952.672 192.75C955.505 199.417 959.922 204.417 965.922 207.75C972.089 211.083 979.589 212.75 988.422 212.75ZM982.672 135C972.839 135 964.839 138.167 958.672 144.5C952.505 150.833 949.255 159.583 948.922 170.75L1014.42 158C1012.59 151 1008.84 145.417 1003.17 141.25C997.505 137.083 990.672 135 982.672 135ZM1115.64 125.25C1120.3 118.75 1126.55 113.833 1134.39 110.5C1142.39 107.167 1151.55 105.5 1161.89 105.5V141.5C1157.55 141.167 1154.64 141 1153.14 141C1141.97 141 1133.22 144.167 1126.89 150.5C1120.55 156.667 1117.39 166 1117.39 178.5V242H1078.39V107.5H1115.64V125.25Z" fill="white"/>
<path d="M567.957 171.709L515.534 235.981C512.685 239.473 508.417 241.5 503.91 241.5H452.43C439.814 241.5 432.834 226.873 440.769 217.065L519.375 119.908C525.474 112.37 537.014 112.511 542.926 120.197L568.223 153.082C572.467 158.6 572.357 166.314 567.957 171.709Z" fill="#DCAF50" stroke="#DCAF50" stroke-width="10"/>
<path d="M626.464 224.37L601.19 192.777C597.245 187.847 589.775 187.761 585.718 192.599L559.229 224.192C553.772 230.7 558.399 240.617 566.892 240.617H618.655C627.04 240.617 631.702 230.918 626.464 224.37Z" fill="#DCAF50" stroke="#DCAF50" stroke-width="10"/>
<path d="M394.25 270H399.25V300.65H418.2V305H394.25V270ZM447.596 278.5V305H443.046V301C442.079 302.367 440.796 303.433 439.196 304.2C437.629 304.933 435.912 305.3 434.046 305.3C430.512 305.3 427.729 304.333 425.696 302.4C423.662 300.433 422.646 297.55 422.646 293.75V278.5H427.446V293.2C427.446 295.767 428.062 297.717 429.296 299.05C430.529 300.35 432.296 301 434.596 301C437.129 301 439.129 300.233 440.596 298.7C442.062 297.167 442.796 295 442.796 292.2V278.5H447.596ZM470.784 278.25C473.35 278.25 475.65 278.817 477.684 279.95C479.717 281.083 481.3 282.667 482.434 284.7C483.6 286.733 484.184 289.083 484.184 291.75C484.184 294.417 483.6 296.783 482.434 298.85C481.3 300.883 479.717 302.467 477.684 303.6C475.65 304.733 473.35 305.3 470.784 305.3C468.817 305.3 467.017 304.917 465.384 304.15C463.75 303.383 462.4 302.267 461.334 300.8V305H456.734V267.9H461.534V282.5C462.6 281.1 463.934 280.05 465.534 279.35C467.134 278.617 468.884 278.25 470.784 278.25ZM470.384 301.1C472.084 301.1 473.6 300.717 474.934 299.95C476.3 299.15 477.367 298.05 478.134 296.65C478.934 295.217 479.334 293.583 479.334 291.75C479.334 289.917 478.934 288.3 478.134 286.9C477.367 285.467 476.3 284.367 474.934 283.6C473.6 282.833 472.084 282.45 470.384 282.45C468.717 282.45 467.2 282.833 465.834 283.6C464.467 284.367 463.4 285.467 462.634 286.9C461.867 288.3 461.484 289.917 461.484 291.75C461.484 293.583 461.867 295.217 462.634 296.65C463.4 298.05 464.467 299.15 465.834 299.95C467.2 300.717 468.717 301.1 470.384 301.1ZM495.416 282.95C496.249 281.417 497.482 280.25 499.116 279.45C500.749 278.65 502.732 278.25 505.066 278.25V282.9C504.799 282.867 504.432 282.85 503.966 282.85C501.366 282.85 499.316 283.633 497.816 285.2C496.349 286.733 495.616 288.933 495.616 291.8V305H490.816V278.5H495.416V282.95ZM510.982 278.5H515.782V305H510.982V278.5ZM513.382 273.4C512.448 273.4 511.665 273.1 511.032 272.5C510.432 271.9 510.132 271.167 510.132 270.3C510.132 269.433 510.432 268.7 511.032 268.1C511.665 267.467 512.448 267.15 513.382 267.15C514.315 267.15 515.082 267.45 515.682 268.05C516.315 268.617 516.632 269.333 516.632 270.2C516.632 271.1 516.315 271.867 515.682 272.5C515.082 273.1 514.315 273.4 513.382 273.4ZM536.496 305.3C533.796 305.3 531.38 304.717 529.246 303.55C527.146 302.383 525.496 300.783 524.296 298.75C523.096 296.683 522.496 294.35 522.496 291.75C522.496 289.15 523.096 286.833 524.296 284.8C525.496 282.733 527.146 281.133 529.246 280C531.38 278.833 533.796 278.25 536.496 278.25C538.896 278.25 541.03 278.733 542.896 279.7C544.796 280.667 546.263 282.067 547.296 283.9L543.646 286.25C542.813 284.983 541.78 284.033 540.546 283.4C539.313 282.767 537.946 282.45 536.446 282.45C534.713 282.45 533.146 282.833 531.746 283.6C530.38 284.367 529.296 285.467 528.496 286.9C527.73 288.3 527.346 289.917 527.346 291.75C527.346 293.617 527.73 295.267 528.496 296.7C529.296 298.1 530.38 299.183 531.746 299.95C533.146 300.717 534.713 301.1 536.446 301.1C537.946 301.1 539.313 300.783 540.546 300.15C541.78 299.517 542.813 298.567 543.646 297.3L547.296 299.6C546.263 301.433 544.796 302.85 542.896 303.85C541.03 304.817 538.896 305.3 536.496 305.3ZM578.12 278.5V305H573.52V300.8C572.454 302.267 571.104 303.383 569.47 304.15C567.837 304.917 566.037 305.3 564.07 305.3C561.504 305.3 559.204 304.733 557.17 303.6C555.137 302.467 553.537 300.883 552.37 298.85C551.237 296.783 550.67 294.417 550.67 291.75C550.67 289.083 551.237 286.733 552.37 284.7C553.537 282.667 555.137 281.083 557.17 279.95C559.204 278.817 561.504 278.25 564.07 278.25C565.97 278.25 567.72 278.617 569.32 279.35C570.92 280.05 572.254 281.1 573.32 282.5V278.5H578.12ZM564.47 301.1C566.137 301.1 567.654 300.717 569.02 299.95C570.387 299.15 571.454 298.05 572.22 296.65C572.987 295.217 573.37 293.583 573.37 291.75C573.37 289.917 572.987 288.3 572.22 286.9C571.454 285.467 570.387 284.367 569.02 283.6C567.654 282.833 566.137 282.45 564.47 282.45C562.77 282.45 561.237 282.833 559.87 283.6C558.537 284.367 557.47 285.467 556.67 286.9C555.904 288.3 555.52 289.917 555.52 291.75C555.52 293.583 555.904 295.217 556.67 296.65C557.47 298.05 558.537 299.15 559.87 299.95C561.237 300.717 562.77 301.1 564.47 301.1ZM601.352 278.25C604.719 278.25 607.386 279.233 609.352 281.2C611.352 283.133 612.352 285.983 612.352 289.75V305H607.552V290.3C607.552 287.733 606.936 285.8 605.702 284.5C604.469 283.2 602.702 282.55 600.402 282.55C597.802 282.55 595.752 283.317 594.252 284.85C592.752 286.35 592.002 288.517 592.002 291.35V305H587.202V278.5H591.802V282.5C592.769 281.133 594.069 280.083 595.702 279.35C597.369 278.617 599.252 278.25 601.352 278.25ZM635.186 303.45C634.486 304.05 633.619 304.517 632.586 304.85C631.552 305.15 630.486 305.3 629.386 305.3C626.719 305.3 624.652 304.583 623.186 303.15C621.719 301.717 620.986 299.667 620.986 297V272.7H625.786V278.5H633.386V282.45H625.786V296.8C625.786 298.233 626.136 299.333 626.836 300.1C627.569 300.867 628.602 301.25 629.936 301.25C631.402 301.25 632.652 300.833 633.686 300L635.186 303.45ZM652.033 301.1C655.2 301.1 657.75 300.033 659.683 297.9L662.283 301C661.117 302.4 659.633 303.467 657.833 304.2C656.067 304.933 654.083 305.3 651.883 305.3C649.083 305.3 646.6 304.733 644.433 303.6C642.267 302.433 640.583 300.817 639.383 298.75C638.217 296.683 637.633 294.35 637.633 291.75C637.633 289.183 638.2 286.867 639.333 284.8C640.5 282.733 642.083 281.133 644.083 280C646.117 278.833 648.4 278.25 650.933 278.25C653.333 278.25 655.517 278.8 657.483 279.9C659.45 280.967 661.017 282.483 662.183 284.45C663.35 286.417 663.95 288.683 663.983 291.25L642.933 295.35C643.6 297.183 644.717 298.6 646.283 299.6C647.883 300.6 649.8 301.1 652.033 301.1ZM650.933 282.3C649.267 282.3 647.767 282.683 646.433 283.45C645.133 284.217 644.117 285.3 643.383 286.7C642.65 288.067 642.283 289.667 642.283 291.5V292L659.233 288.8C658.8 286.867 657.833 285.3 656.333 284.1C654.833 282.9 653.033 282.3 650.933 282.3ZM678.298 305.3C676.132 305.3 674.048 305.017 672.048 304.45C670.048 303.85 668.482 303.1 667.348 302.2L669.348 298.4C670.515 299.233 671.932 299.9 673.598 300.4C675.265 300.9 676.948 301.15 678.648 301.15C682.848 301.15 684.948 299.95 684.948 297.55C684.948 296.75 684.665 296.117 684.098 295.65C683.532 295.183 682.815 294.85 681.948 294.65C681.115 294.417 679.915 294.167 678.348 293.9C676.215 293.567 674.465 293.183 673.098 292.75C671.765 292.317 670.615 291.583 669.648 290.55C668.682 289.517 668.198 288.067 668.198 286.2C668.198 283.8 669.198 281.883 671.198 280.45C673.198 278.983 675.882 278.25 679.248 278.25C681.015 278.25 682.782 278.467 684.548 278.9C686.315 279.333 687.765 279.917 688.898 280.65L686.848 284.45C684.682 283.05 682.132 282.35 679.198 282.35C677.165 282.35 675.615 282.683 674.548 283.35C673.482 284.017 672.948 284.9 672.948 286C672.948 286.867 673.248 287.55 673.848 288.05C674.448 288.55 675.182 288.917 676.048 289.15C676.948 289.383 678.198 289.65 679.798 289.95C681.932 290.317 683.648 290.717 684.948 291.15C686.282 291.55 687.415 292.25 688.348 293.25C689.282 294.25 689.748 295.65 689.748 297.45C689.748 299.85 688.715 301.767 686.648 303.2C684.615 304.6 681.832 305.3 678.298 305.3ZM724.575 269.6C729.242 269.6 732.925 270.967 735.625 273.7C738.325 276.4 739.675 280.283 739.675 285.35V305H734.675V295.35H714.475V305H709.575V285.35C709.575 280.283 710.925 276.4 713.625 273.7C716.325 270.967 719.975 269.6 724.575 269.6ZM734.675 291V284.9C734.675 281.333 733.775 278.633 731.975 276.8C730.208 274.967 727.742 274.05 724.575 274.05C721.408 274.05 718.925 274.967 717.125 276.8C715.358 278.633 714.475 281.333 714.475 284.9V291H734.675ZM782.315 278.25C785.649 278.25 788.282 279.217 790.215 281.15C792.182 283.083 793.165 285.95 793.165 289.75V305H788.365V290.3C788.365 287.733 787.765 285.8 786.565 284.5C785.399 283.2 783.715 282.55 781.515 282.55C779.082 282.55 777.149 283.317 775.715 284.85C774.282 286.35 773.565 288.517 773.565 291.35V305H768.765V290.3C768.765 287.733 768.165 285.8 766.965 284.5C765.799 283.2 764.115 282.55 761.915 282.55C759.482 282.55 757.549 283.317 756.115 284.85C754.682 286.35 753.965 288.517 753.965 291.35V305H749.165V278.5H753.765V282.45C754.732 281.083 755.999 280.05 757.565 279.35C759.132 278.617 760.915 278.25 762.915 278.25C764.982 278.25 766.815 278.667 768.415 279.5C770.015 280.333 771.249 281.55 772.115 283.15C773.115 281.617 774.499 280.417 776.265 279.55C778.065 278.683 780.082 278.25 782.315 278.25ZM814.094 301.1C817.26 301.1 819.81 300.033 821.744 297.9L824.344 301C823.177 302.4 821.694 303.467 819.894 304.2C818.127 304.933 816.144 305.3 813.944 305.3C811.144 305.3 808.66 304.733 806.494 303.6C804.327 302.433 802.644 300.817 801.444 298.75C800.277 296.683 799.694 294.35 799.694 291.75C799.694 289.183 800.26 286.867 801.394 284.8C802.56 282.733 804.144 281.133 806.144 280C808.177 278.833 810.46 278.25 812.994 278.25C815.394 278.25 817.577 278.8 819.544 279.9C821.51 280.967 823.077 282.483 824.244 284.45C825.41 286.417 826.01 288.683 826.044 291.25L804.994 295.35C805.66 297.183 806.777 298.6 808.344 299.6C809.944 300.6 811.86 301.1 814.094 301.1ZM812.994 282.3C811.327 282.3 809.827 282.683 808.494 283.45C807.194 284.217 806.177 285.3 805.444 286.7C804.71 288.067 804.344 289.667 804.344 291.5V292L821.294 288.8C820.86 286.867 819.894 285.3 818.394 284.1C816.894 282.9 815.094 282.3 812.994 282.3ZM837.359 282.95C838.192 281.417 839.426 280.25 841.059 279.45C842.692 278.65 844.676 278.25 847.009 278.25V282.9C846.742 282.867 846.376 282.85 845.909 282.85C843.309 282.85 841.259 283.633 839.759 285.2C838.292 286.733 837.559 288.933 837.559 291.8V305H832.759V278.5H837.359V282.95ZM852.925 278.5H857.725V305H852.925V278.5ZM855.325 273.4C854.392 273.4 853.608 273.1 852.975 272.5C852.375 271.9 852.075 271.167 852.075 270.3C852.075 269.433 852.375 268.7 852.975 268.1C853.608 267.467 854.392 267.15 855.325 267.15C856.258 267.15 857.025 267.45 857.625 268.05C858.258 268.617 858.575 269.333 858.575 270.2C858.575 271.1 858.258 271.867 857.625 272.5C857.025 273.1 856.258 273.4 855.325 273.4ZM878.44 305.3C875.74 305.3 873.323 304.717 871.19 303.55C869.09 302.383 867.44 300.783 866.24 298.75C865.04 296.683 864.44 294.35 864.44 291.75C864.44 289.15 865.04 286.833 866.24 284.8C867.44 282.733 869.09 281.133 871.19 280C873.323 278.833 875.74 278.25 878.44 278.25C880.84 278.25 882.973 278.733 884.84 279.7C886.74 280.667 888.207 282.067 889.24 283.9L885.59 286.25C884.757 284.983 883.723 284.033 882.49 283.4C881.257 282.767 879.89 282.45 878.39 282.45C876.657 282.45 875.09 282.833 873.69 283.6C872.323 284.367 871.24 285.467 870.44 286.9C869.673 288.3 869.29 289.917 869.29 291.75C869.29 293.617 869.673 295.267 870.44 296.7C871.24 298.1 872.323 299.183 873.69 299.95C875.09 300.717 876.657 301.1 878.39 301.1C879.89 301.1 881.257 300.783 882.49 300.15C883.723 299.517 884.757 298.567 885.59 297.3L889.24 299.6C888.207 301.433 886.74 302.85 884.84 303.85C882.973 304.817 880.84 305.3 878.44 305.3ZM920.064 278.5V305H915.464V300.8C914.397 302.267 913.047 303.383 911.414 304.15C909.78 304.917 907.98 305.3 906.014 305.3C903.447 305.3 901.147 304.733 899.114 303.6C897.08 302.467 895.48 300.883 894.314 298.85C893.18 296.783 892.614 294.417 892.614 291.75C892.614 289.083 893.18 286.733 894.314 284.7C895.48 282.667 897.08 281.083 899.114 279.95C901.147 278.817 903.447 278.25 906.014 278.25C907.914 278.25 909.664 278.617 911.264 279.35C912.864 280.05 914.197 281.1 915.264 282.5V278.5H920.064ZM906.414 301.1C908.08 301.1 909.597 300.717 910.964 299.95C912.33 299.15 913.397 298.05 914.164 296.65C914.93 295.217 915.314 293.583 915.314 291.75C915.314 289.917 914.93 288.3 914.164 286.9C913.397 285.467 912.33 284.367 910.964 283.6C909.597 282.833 908.08 282.45 906.414 282.45C904.714 282.45 903.18 282.833 901.814 283.6C900.48 284.367 899.414 285.467 898.614 286.9C897.847 288.3 897.464 289.917 897.464 291.75C897.464 293.583 897.847 295.217 898.614 296.65C899.414 298.05 900.48 299.15 901.814 299.95C903.18 300.717 904.714 301.1 906.414 301.1ZM943.296 278.25C946.662 278.25 949.329 279.233 951.296 281.2C953.296 283.133 954.296 285.983 954.296 289.75V305H949.496V290.3C949.496 287.733 948.879 285.8 947.646 284.5C946.412 283.2 944.646 282.55 942.346 282.55C939.746 282.55 937.696 283.317 936.196 284.85C934.696 286.35 933.946 288.517 933.946 291.35V305H929.146V278.5H933.746V282.5C934.712 281.133 936.012 280.083 937.646 279.35C939.312 278.617 941.196 278.25 943.296 278.25ZM974.675 305.3C972.042 305.3 969.675 304.717 967.575 303.55C965.475 302.383 963.825 300.783 962.625 298.75C961.459 296.683 960.875 294.35 960.875 291.75C960.875 289.15 961.459 286.833 962.625 284.8C963.825 282.733 965.475 281.133 967.575 280C969.675 278.833 972.042 278.25 974.675 278.25C977.309 278.25 979.659 278.833 981.725 280C983.825 281.133 985.459 282.733 986.625 284.8C987.825 286.833 988.425 289.15 988.425 291.75C988.425 294.35 987.825 296.683 986.625 298.75C985.459 300.783 983.825 302.383 981.725 303.55C979.659 304.717 977.309 305.3 974.675 305.3ZM974.675 301.1C976.375 301.1 977.892 300.717 979.225 299.95C980.592 299.15 981.659 298.05 982.425 296.65C983.192 295.217 983.575 293.583 983.575 291.75C983.575 289.917 983.192 288.3 982.425 286.9C981.659 285.467 980.592 284.367 979.225 283.6C977.892 282.833 976.375 282.45 974.675 282.45C972.975 282.45 971.442 282.833 970.075 283.6C968.742 284.367 967.675 285.467 966.875 286.9C966.109 288.3 965.725 289.917 965.725 291.75C965.725 293.583 966.109 295.217 966.875 296.65C967.675 298.05 968.742 299.15 970.075 299.95C971.442 300.717 972.975 301.1 974.675 301.1ZM1002.66 305.3C1000.5 305.3 998.414 305.017 996.414 304.45C994.414 303.85 992.847 303.1 991.714 302.2L993.714 298.4C994.88 299.233 996.297 299.9 997.964 300.4C999.63 300.9 1001.31 301.15 1003.01 301.15C1007.21 301.15 1009.31 299.95 1009.31 297.55C1009.31 296.75 1009.03 296.117 1008.46 295.65C1007.9 295.183 1007.18 294.85 1006.31 294.65C1005.48 294.417 1004.28 294.167 1002.71 293.9C1000.58 293.567 998.83 293.183 997.464 292.75C996.13 292.317 994.98 291.583 994.014 290.55C993.047 289.517 992.564 288.067 992.564 286.2C992.564 283.8 993.564 281.883 995.564 280.45C997.564 278.983 1000.25 278.25 1003.61 278.25C1005.38 278.25 1007.15 278.467 1008.91 278.9C1010.68 279.333 1012.13 279.917 1013.26 280.65L1011.21 284.45C1009.05 283.05 1006.5 282.35 1003.56 282.35C1001.53 282.35 999.98 282.683 998.914 283.35C997.847 284.017 997.314 284.9 997.314 286C997.314 286.867 997.614 287.55 998.214 288.05C998.814 288.55 999.547 288.917 1000.41 289.15C1001.31 289.383 1002.56 289.65 1004.16 289.95C1006.3 290.317 1008.01 290.717 1009.31 291.15C1010.65 291.55 1011.78 292.25 1012.71 293.25C1013.65 294.25 1014.11 295.65 1014.11 297.45C1014.11 299.85 1013.08 301.767 1011.01 303.2C1008.98 304.6 1006.2 305.3 1002.66 305.3ZM1041.59 305.3C1039.02 305.3 1037.04 304.6 1035.64 303.2C1034.24 301.767 1033.54 299.767 1033.54 297.2V267.9H1038.34V296.8C1038.34 298.233 1038.67 299.333 1039.34 300.1C1040.04 300.867 1041.07 301.25 1042.44 301.25C1043.27 301.25 1044.06 301.083 1044.79 300.75L1045.04 304.7C1043.94 305.1 1042.79 305.3 1041.59 305.3ZM1063.55 303.45C1062.85 304.05 1061.99 304.517 1060.95 304.85C1059.92 305.15 1058.85 305.3 1057.75 305.3C1055.09 305.3 1053.02 304.583 1051.55 303.15C1050.09 301.717 1049.35 299.667 1049.35 297V272.7H1054.15V278.5H1061.75V282.45H1054.15V296.8C1054.15 298.233 1054.5 299.333 1055.2 300.1C1055.94 300.867 1056.97 301.25 1058.3 301.25C1059.77 301.25 1061.02 300.833 1062.05 300L1063.55 303.45ZM1093.45 267.9V305H1088.85V300.8C1087.79 302.267 1086.44 303.383 1084.8 304.15C1083.17 304.917 1081.37 305.3 1079.4 305.3C1076.84 305.3 1074.54 304.733 1072.5 303.6C1070.47 302.467 1068.87 300.883 1067.7 298.85C1066.57 296.783 1066 294.417 1066 291.75C1066 289.083 1066.57 286.733 1067.7 284.7C1068.87 282.667 1070.47 281.083 1072.5 279.95C1074.54 278.817 1076.84 278.25 1079.4 278.25C1081.3 278.25 1083.05 278.617 1084.65 279.35C1086.25 280.05 1087.59 281.1 1088.65 282.5V267.9H1093.45ZM1079.8 301.1C1081.47 301.1 1082.99 300.717 1084.35 299.95C1085.72 299.15 1086.79 298.05 1087.55 296.65C1088.32 295.217 1088.7 293.583 1088.7 291.75C1088.7 289.917 1088.32 288.3 1087.55 286.9C1086.79 285.467 1085.72 284.367 1084.35 283.6C1082.99 282.833 1081.47 282.45 1079.8 282.45C1078.1 282.45 1076.57 282.833 1075.2 283.6C1073.87 284.367 1072.8 285.467 1072 286.9C1071.24 288.3 1070.85 289.917 1070.85 291.75C1070.85 293.583 1071.24 295.217 1072 296.65C1072.8 298.05 1073.87 299.15 1075.2 299.95C1076.57 300.717 1078.1 301.1 1079.8 301.1ZM1127.53 278.5V305H1122.93V300.8C1121.87 302.267 1120.52 303.383 1118.88 304.15C1117.25 304.917 1115.45 305.3 1113.48 305.3C1110.92 305.3 1108.62 304.733 1106.58 303.6C1104.55 302.467 1102.95 300.883 1101.78 298.85C1100.65 296.783 1100.08 294.417 1100.08 291.75C1100.08 289.083 1100.65 286.733 1101.78 284.7C1102.95 282.667 1104.55 281.083 1106.58 279.95C1108.62 278.817 1110.92 278.25 1113.48 278.25C1115.38 278.25 1117.13 278.617 1118.73 279.35C1120.33 280.05 1121.67 281.1 1122.73 282.5V278.5H1127.53ZM1113.88 301.1C1115.55 301.1 1117.07 300.717 1118.43 299.95C1119.8 299.15 1120.87 298.05 1121.63 296.65C1122.4 295.217 1122.78 293.583 1122.78 291.75C1122.78 289.917 1122.4 288.3 1121.63 286.9C1120.87 285.467 1119.8 284.367 1118.43 283.6C1117.07 282.833 1115.55 282.45 1113.88 282.45C1112.18 282.45 1110.65 282.833 1109.28 283.6C1107.95 284.367 1106.88 285.467 1106.08 286.9C1105.32 288.3 1104.93 289.917 1104.93 291.75C1104.93 293.583 1105.32 295.217 1106.08 296.65C1106.88 298.05 1107.95 299.15 1109.28 299.95C1110.65 300.717 1112.18 301.1 1113.88 301.1ZM1137.77 305.3C1136.83 305.3 1136.03 304.983 1135.37 304.35C1134.7 303.683 1134.37 302.85 1134.37 301.85C1134.37 300.883 1134.7 300.083 1135.37 299.45C1136.03 298.783 1136.83 298.45 1137.77 298.45C1138.7 298.45 1139.48 298.767 1140.12 299.4C1140.75 300.033 1141.07 300.85 1141.07 301.85C1141.07 302.85 1140.73 303.683 1140.07 304.35C1139.43 304.983 1138.67 305.3 1137.77 305.3Z" fill="#8C8C91"/>
<path d="M365.035 301.418L373.9 283.418C377.172 276.773 372.336 269 364.928 269H24C18.4772 269 14 273.477 14 279V297C14 302.523 18.4772 307 24 307H356.064C359.873 307 363.352 304.836 365.035 301.418Z" fill="#DCAF50"/>
</svg>
